<svg id="visual" viewBox="0 0 900 600" width="900" height="600" xmlns="http://www.w3.org/2000/svg" xmlns:xlink="http://www.w3.org/1999/xlink" version="1.1"><rect x="0" y="0" width="900" height="600" fill="#606c38"></rect><path d="M125 0L125.5 11.2C126 22.3 127 44.7 117.5 66.8C108 89 88 111 95.2 133.2C102.3 155.3 136.7 177.7 137.3 200C138 222.3 105 244.7 104 266.8C103 289 134 311 159.3 333.2C184.7 355.3 204.3 377.7 215.5 400C226.7 422.3 229.3 444.7 206.2 466.8C183 489 134 511 117.7 533.2C101.3 555.3 117.7 577.7 125.8 588.8L134 600L0 600L0 588.8C0 577.7 0 555.3 0 533.2C0 511 0 489 0 466.8C0 444.7 0 422.3 0 400C0 377.7 0 355.3 0 333.2C0 311 0 289 0 266.8C0 244.7 0 222.3 0 200C0 177.7 0 155.3 0 133.2C0 111 0 89 0 66.8C0 44.7 0 22.3 0 11.2L0 0Z" fill="#bc6c25" stroke-linecap="round" stroke-linejoin="miter"></path></svg>