<svg id="visual" viewBox="0 0 900 600" width="900" height="600" xmlns="http://www.w3.org/2000/svg" xmlns:xlink="http://www.w3.org/1999/xlink" version="1.1"><rect x="0" y="0" width="900" height="600" fill="#606c38"></rect><path d="M777 600L776.5 588.8C776 577.7 775 555.3 784.5 533.2C794 511 814 489 806.8 466.8C799.7 444.7 765.3 422.3 764.7 400C764 377.7 797 355.3 798 333.2C799 311 768 289 742.7 266.8C717.3 244.7 697.7 222.3 686.5 200C675.3 177.7 672.7 155.3 695.8 133.2C719 111 768 89 784.3 66.8C800.7 44.7 784.3 22.3 776.2 11.2L768 0L900 0L900 11.2C900 22.3 900 44.7 900 66.8C900 89 900 111 900 133.2C900 155.3 900 177.7 900 200C900 222.3 900 244.7 900 266.8C900 289 900 311 900 333.2C900 355.3 900 377.7 900 400C900 422.3 900 444.7 900 466.8C900 489 900 511 900 533.2C900 555.3 900 577.7 900 588.8L900 600Z" fill="#bc6c25" stroke-linecap="round" stroke-linejoin="miter"></path></svg>